<?xml version="1.0" encoding="UTF-8"?>
<svg width="64px" height="48px" viewBox="0 0 64 48" version="1.1" xmlns="http://www.w3.org/2000/svg" xmlns:xlink="http://www.w3.org/1999/xlink">
    <!-- Generator: Sketch 48.2 (47327) - http://www.bohemiancoding.com/sketch -->
    <title>icons8-картина</title>
    <desc>Created with Sketch.</desc>
    <defs></defs>
    <g id="Page-1" stroke="none" stroke-width="1" fill="none" fill-rule="evenodd">
        <g id="icons8-картина" fill="#000000" fill-rule="nonzero">
            <path d="M3,0 C1.347656,0 0,1.347656 0,3 L0,45 C0,46.652344 1.347656,48 3,48 L61,48 C62.652344,48 64,46.652344 64,45 L64,3 C64,1.347656 62.652344,0 61,0 L3,0 Z M3,2 L61,2 C61.550781,2 62,2.449219 62,3 L62,45 C62,45.550781 61.550781,46 61,46 L3,46 C2.449219,46 2,45.550781 2,45 L2,3 C2,2.449219 2.449219,2 3,2 Z M48,24.859375 C47.222656,24.859375 46.445313,25.140625 45.878906,25.707031 L39.492188,32.09375 L36.097656,28.699219 C35,27.597656 33,27.597656 31.902344,28.699219 L18.597656,42 L13.042969,42 C12.417969,42 12,42.398438 12,43 C12,43.601563 12.523438,44 13.042969,44 L58.980469,44 C59.5,44 60.023438,43.601563 60.023438,43 C60.023438,42.398438 59.5,42 58.980469,42 L32.414063,42 L47.292969,27.121094 C47.671875,26.742188 48.328125,26.742188 48.707031,27.121094 L58.292969,36.707031 C58.683594,37.097656 59.316406,37.097656 59.707031,36.707031 C60.097656,36.316406 60.097656,35.683594 59.707031,35.292969 L50.121094,25.707031 C49.554688,25.140625 48.777344,24.859375 48,24.859375 Z M34,29.800781 C34.25,29.800781 34.5,29.898438 34.699219,30.097656 L38.09375,33.492188 L29.585938,42 L21.402344,42 L33.300781,30.097656 C33.5,29.898438 33.75,29.800781 34,29.800781 Z M5,42 C4.398438,42 4,42.398438 4,43 C4,43.601563 4.398438,44 5,44 L9,44 C9.601563,44 10,43.601563 10,43 C10,42.398438 9.601563,42 9,42 L5,42 Z" id="Shape"></path>
        </g>
    </g>
</svg>